<svg width="256" height="256" xmlns="http://www.w3.org/2000/svg" fill="currentColor">

 <g>
  <title>Layer 1</title>
  <path fill="#b4dbff" id="svg_1" d="m231.88,175.08a56.26,56.26 0 0 1 -55.88,48.92c-79.4,0 -144,-64.6 -144,-144a56.26,56.26 0 0 1 48.92,-55.88a16,16 0 0 1 16.62,9.52l21.12,47.15l0,0.12a16,16 0 0 1 -1.27,15.09c-0.18,0.27 -0.37,0.52 -0.57,0.77l-20.82,24.68c7.49,15.22 23.41,31 38.83,38.51l24.34,-20.71a8.12,8.12 0 0 1 0.75,-0.56a16,16 0 0 1 15.17,-1.4l0.13,0.06l47.11,21.11a16,16 0 0 1 9.55,16.62z"/>
 </g>
</svg>